DancingScript-Regular.ufo
<glyph name="quotesingle" format="2">
  <advance width="125"/>
  <unicode hex="0027"/>
  <outline>
    <contour>
      <point x="148" y="576" type="curve"/>
      <point x="161" y="610"/>
      <point x="180" y="653"/>
      <point x="217" y="692" type="curve"/>
      <point x="217" y="707"/>
      <point x="205" y="720"/>
      <point x="192" y="720" type="curve" smooth="yes"/>
      <point x="162" y="720"/>
      <point x="131" y="654"/>
      <point x="131" y="613" type="curve" smooth="yes"/>
      <point x="131" y="597"/>
      <point x="136" y="583"/>
    </contour>
  </outline>
</glyph>
<glyph name="equal" format="2">
  <advance width="503"/>
  <unicode hex="003D"/>
  <outline>
    <contour>
      <point x="52" y="206" type="curve"/>
      <point x="113" y="216"/>
      <point x="144" y="217"/>
      <point x="205" y="217" type="curve" smooth="yes"/>
      <point x="306" y="217" type="line" smooth="yes"/>
      <point x="334" y="217"/>
      <point x="376" y="222"/>
      <point x="409" y="246" type="curve"/>
      <point x="380" y="249"/>
      <point x="312" y="255"/>
      <point x="241" y="255" type="curve" smooth="yes"/>
      <point x="145" y="255"/>
      <point x="67" y="246"/>
    </contour>
    <contour>
      <point x="52" y="106" type="curve"/>
      <point x="113" y="116"/>
      <point x="144" y="117"/>
      <point x="205" y="117" type="curve" smooth="yes"/>
      <point x="306" y="117" type="line" smooth="yes"/>
      <point x="334" y="117"/>
      <point x="376" y="122"/>
      <point x="409" y="146" type="curve"/>
      <point x="380" y="149"/>
      <point x="312" y="155"/>
      <point x="241" y="155" type="curve" smooth="yes"/>
      <point x="145" y="155"/>
      <point x="67" y="146"/>
    </contour>
  </outline>
</glyph>
<glyph name="at" format="2">
  <advance width="583"/>
  <unicode hex="0040"/>
  <outline>
    <contour>
      <point x="216" y="-121" type="curve" smooth="yes"/>
      <point x="314" y="-121"/>
      <point x="391" y="-77"/>
      <point x="442" y="-19" type="curve"/>
      <point x="436" y="-11" type="line"/>
      <point x="369" y="-70"/>
      <point x="293" y="-96"/>
      <point x="222" y="-96" type="curve" smooth="yes"/>
      <point x="89" y="-96"/>
      <point x="39" y="-6"/>
      <point x="39" y="84" type="curve" smooth="yes"/>
      <point x="39" y="219"/>
      <point x="151" y="365"/>
      <point x="322" y="365" type="curve" smooth="yes"/>
      <point x="449" y="365"/>
      <point x="501" y="284"/>
      <point x="501" y="208" type="curve" smooth="yes"/>
      <point x="501" y="123"/>
      <point x="435" y="36"/>
      <point x="372" y="36" type="curve" smooth="yes"/>
      <point x="343" y="36"/>
      <point x="338" y="55"/>
      <point x="338" y="69" type="curve" smooth="yes"/>
      <point x="338" y="111"/>
      <point x="384" y="163"/>
      <point x="384" y="182" type="curve" smooth="yes"/>
      <point x="384" y="194"/>
      <point x="362" y="201"/>
      <point x="352" y="202" type="curve"/>
      <point x="313" y="145"/>
      <point x="234" y="28"/>
      <point x="184" y="28" type="curve" smooth="yes"/>
      <point x="170" y="28"/>
      <point x="162" y="37"/>
      <point x="162" y="60" type="curve" smooth="yes"/>
      <point x="162" y="137"/>
      <point x="252" y="285"/>
      <point x="328" y="285" type="curve" smooth="yes"/>
      <point x="356" y="285"/>
      <point x="366" y="265"/>
      <point x="366" y="240" type="curve" smooth="yes"/>
      <point x="366" y="232"/>
      <point x="365" y="221"/>
      <point x="362" y="213" type="curve"/>
      <point x="386" y="213"/>
      <point x="402" y="221"/>
      <point x="402" y="247" type="curve" smooth="yes"/>
      <point x="402" y="283"/>
      <point x="370" y="307"/>
      <point x="329" y="307" type="curve" smooth="yes"/>
      <point x="225" y="307"/>
      <point x="107" y="157"/>
      <point x="107" y="61" type="curve" smooth="yes"/>
      <point x="107" y="17"/>
      <point x="133" y="-5"/>
      <point x="166" y="-5" type="curve" smooth="yes"/>
      <point x="206" y="-5"/>
      <point x="251" y="26"/>
      <point x="297" y="88" type="curve"/>
      <point x="296" y="81"/>
      <point x="295" y="76"/>
      <point x="295" y="68" type="curve" smooth="yes"/>
      <point x="295" y="32"/>
      <point x="315" y="9"/>
      <point x="359" y="9" type="curve" smooth="yes"/>
      <point x="454" y="9"/>
      <point x="533" y="116"/>
      <point x="533" y="214" type="curve" smooth="yes"/>
      <point x="533" y="304"/>
      <point x="468" y="395"/>
      <point x="322" y="395" type="curve" smooth="yes"/>
      <point x="132" y="395"/>
      <point x="3" y="241"/>
      <point x="3" y="88" type="curve" smooth="yes"/>
      <point x="3" y="-19"/>
      <point x="66" y="-121"/>
    </contour>
  </outline>
</glyph>
<glyph name="C" format="2">
  <advance width="534"/>
  <unicode hex="0043"/>
  <outline>
    <contour>
      <point x="219" y="-87" type="curve" smooth="yes"/>
      <point x="353" y="-87"/>
      <point x="462" y="21"/>
      <point x="529" y="152" type="curve"/>
      <point x="515" y="162" type="line"/>
      <point x="462" y="48"/>
      <point x="349" y="-53"/>
      <point x="243" y="-53" type="curve" smooth="yes"/>
      <point x="142" y="-53"/>
      <point x="102" y="41"/>
      <point x="102" y="140" type="curve" smooth="yes"/>
      <point x="102" y="365"/>
      <point x="292" y="689"/>
      <point x="436" y="689" type="curve" smooth="yes"/>
      <point x="470" y="689"/>
      <point x="485" y="671"/>
      <point x="485" y="644" type="curve" smooth="yes"/>
      <point x="485" y="587"/>
      <point x="419" y="489"/>
      <point x="378" y="443" type="curve"/>
      <point x="386" y="426"/>
      <point x="398" y="420"/>
      <point x="409" y="420" type="curve" smooth="yes"/>
      <point x="464" y="420"/>
      <point x="525" y="555"/>
      <point x="525" y="633" type="curve" smooth="yes"/>
      <point x="525" y="695"/>
      <point x="487" y="719"/>
      <point x="433" y="719" type="curve" smooth="yes"/>
      <point x="243" y="719"/>
      <point x="22" y="421"/>
      <point x="22" y="157" type="curve" smooth="yes"/>
      <point x="22" y="35"/>
      <point x="77" y="-87"/>
    </contour>
  </outline>
</glyph>
<glyph name="L" format="2">
  <advance width="570"/>
  <unicode hex="004C"/>
  <anchor x="454" y="272" name="center"/>
  <anchor x="598" y="588" name="topright"/>
  <outline>
    <contour>
      <point x="397" y="-87" type="curve" smooth="yes"/>
      <point x="445" y="-87"/>
      <point x="480" y="-64"/>
      <point x="502" y="-2" type="curve"/>
      <point x="481" y="-13"/>
      <point x="459" y="-18"/>
      <point x="431" y="-18" type="curve" smooth="yes"/>
      <point x="357" y="-18"/>
      <point x="258" y="16"/>
      <point x="166" y="44" type="curve"/>
      <point x="224" y="131"/>
      <point x="269" y="265"/>
      <point x="310" y="388" type="curve"/>
      <point x="324.0" y="388.0"/>
      <point x="328" y="388"/>
      <point x="329" y="388" type="curve" smooth="yes"/>
      <point x="492" y="390"/>
      <point x="566" y="527"/>
      <point x="566" y="618" type="curve" smooth="yes"/>
      <point x="566" y="698"/>
      <point x="509" y="720"/>
      <point x="469" y="720" type="curve" smooth="yes"/>
      <point x="368" y="720"/>
      <point x="306" y="580"/>
      <point x="254" y="421" type="curve"/>
      <point x="221" y="439"/>
      <point x="197" y="473"/>
      <point x="197" y="524" type="curve" smooth="yes"/>
      <point x="197" y="542"/>
      <point x="200" y="572"/>
      <point x="210" y="586" type="curve"/>
      <point x="172" y="586"/>
      <point x="148" y="542"/>
      <point x="148" y="507" type="curve" smooth="yes"/>
      <point x="148" y="462"/>
      <point x="185" y="420"/>
      <point x="247" y="400" type="curve"/>
      <point x="206" y="274"/>
      <point x="169" y="140"/>
      <point x="122" y="57" type="curve"/>
      <point x="77" y="69"/>
      <point x="34" y="78"/>
      <point x="-1" y="78" type="curve" smooth="yes"/>
      <point x="-55" y="78"/>
      <point x="-74" y="58"/>
      <point x="-74" y="34" type="curve" smooth="yes"/>
      <point x="-74" y="1"/>
      <point x="-39" y="-53"/>
      <point x="26" y="-53" type="curve" smooth="yes"/>
      <point x="68" y="-53"/>
      <point x="104" y="-31"/>
      <point x="137" y="6" type="curve"/>
      <point x="227" y="-34"/>
      <point x="324" y="-87"/>
    </contour>
    <contour>
      <point x="22" y="-24" type="curve" smooth="yes"/>
      <point x="-19" y="-24"/>
      <point x="-48" y="10"/>
      <point x="-48" y="33" type="curve" smooth="yes"/>
      <point x="-48" y="45"/>
      <point x="-40" y="52"/>
      <point x="-15" y="52" type="curve" smooth="yes"/>
      <point x="17" y="52"/>
      <point x="57" y="39"/>
      <point x="99" y="22" type="curve"/>
      <point x="77" y="-7"/>
      <point x="51" y="-24"/>
    </contour>
    <contour>
      <point x="316" y="407" type="curve"/>
      <point x="367" y="561"/>
      <point x="414" y="695"/>
      <point x="476" y="695" type="curve" smooth="yes"/>
      <point x="495" y="695"/>
      <point x="512" y="683"/>
      <point x="512" y="645" type="curve" smooth="yes"/>
      <point x="512" y="566"/>
      <point x="437" y="408"/>
    </contour>
  </outline>
</glyph>
<glyph name="V" format="2">
  <advance width="632"/>
  <unicode hex="0056"/>
  <outline>
    <contour>
      <point x="210" y="-87" type="curve" smooth="yes"/>
      <point x="375" y="-87"/>
      <point x="646" y="364"/>
      <point x="646" y="583" type="curve" smooth="yes"/>
      <point x="646" y="659"/>
      <point x="613" y="694"/>
      <point x="585" y="694" type="curve" smooth="yes"/>
      <point x="568" y="694"/>
      <point x="546" y="680"/>
      <point x="527" y="648" type="curve"/>
      <point x="560" y="638"/>
      <point x="582" y="610"/>
      <point x="582" y="544" type="curve" smooth="yes"/>
      <point x="582" y="325"/>
      <point x="343" y="-56"/>
      <point x="230" y="-56" type="curve" smooth="yes"/>
      <point x="207" y="-56"/>
      <point x="202" y="-40"/>
      <point x="202" y="-17" type="curve" smooth="yes"/>
      <point x="202" y="97"/>
      <point x="331" y="348"/>
      <point x="331" y="542" type="curve" smooth="yes"/>
      <point x="331" y="650"/>
      <point x="291" y="720"/>
      <point x="208" y="720" type="curve" smooth="yes"/>
      <point x="110" y="720"/>
      <point x="25" y="624"/>
      <point x="25" y="542" type="curve" smooth="yes"/>
      <point x="25" y="503"/>
      <point x="44" y="470"/>
      <point x="96" y="470" type="curve"/>
      <point x="90" y="484"/>
      <point x="87" y="503"/>
      <point x="87" y="524" type="curve" smooth="yes"/>
      <point x="87" y="590"/>
      <point x="116" y="692"/>
      <point x="190" y="692" type="curve" smooth="yes"/>
      <point x="249" y="692"/>
      <point x="250" y="626"/>
      <point x="250" y="552" type="curve" smooth="yes"/>
      <point x="250" y="352"/>
      <point x="124" y="91"/>
      <point x="124" y="-7" type="curve" smooth="yes"/>
      <point x="124" y="-73"/>
      <point x="181" y="-87"/>
    </contour>
  </outline>
</glyph>
<glyph name="Z" format="2">
  <advance width="631"/>
  <unicode hex="005A"/>
  <outline>
    <contour>
      <point x="447" y="-87" type="curve" smooth="yes"/>
      <point x="495" y="-87"/>
      <point x="530" y="-64"/>
      <point x="552" y="-2" type="curve"/>
      <point x="531" y="-13"/>
      <point x="509" y="-18"/>
      <point x="481" y="-18" type="curve" smooth="yes"/>
      <point x="413" y="-18"/>
      <point x="322" y="11"/>
      <point x="236" y="38" type="curve"/>
      <point x="311" y="110"/>
      <point x="388" y="215"/>
      <point x="454" y="323" type="curve"/>
      <point x="544" y="325"/>
      <point x="564" y="326"/>
      <point x="586" y="358" type="curve"/>
      <point x="555" y="358"/>
      <point x="520" y="363"/>
      <point x="480" y="367" type="curve"/>
      <point x="535" y="462"/>
      <point x="581" y="554"/>
      <point x="610" y="623" type="curve"/>
      <point x="625" y="631"/>
      <point x="641" y="642"/>
      <point x="660" y="658" type="curve"/>
      <point x="650" y="656"/>
      <point x="641" y="656"/>
      <point x="628" y="656" type="curve" smooth="yes"/>
      <point x="523" y="656"/>
      <point x="422" y="720"/>
      <point x="282" y="720" type="curve" smooth="yes"/>
      <point x="163" y="720"/>
      <point x="89" y="674"/>
      <point x="89" y="585" type="curve" smooth="yes"/>
      <point x="89" y="545"/>
      <point x="104" y="520"/>
      <point x="143" y="513" type="curve"/>
      <point x="140" y="523"/>
      <point x="139" y="532"/>
      <point x="139" y="548" type="curve" smooth="yes"/>
      <point x="139" y="658"/>
      <point x="188" y="692"/>
      <point x="252" y="692" type="curve" smooth="yes"/>
      <point x="312" y="692"/>
      <point x="388" y="662"/>
      <point x="452" y="637" type="curve" smooth="yes"/>
      <point x="481" y="626"/>
      <point x="509" y="615"/>
      <point x="530" y="610" type="curve"/>
      <point x="508" y="552"/>
      <point x="465" y="465"/>
      <point x="413" y="373" type="curve"/>
      <point x="398" y="374"/>
      <point x="383" y="375"/>
      <point x="368" y="375" type="curve" smooth="yes"/>
      <point x="288" y="375"/>
      <point x="222" y="361"/>
      <point x="219" y="305" type="curve"/>
      <point x="253" y="310" type="line"/>
      <point x="303" y="317"/>
      <point x="333" y="320"/>
      <point x="383" y="321" type="curve"/>
      <point x="322" y="220"/>
      <point x="252" y="119"/>
      <point x="188" y="52" type="curve"/>
      <point x="137" y="67"/>
      <point x="90" y="78"/>
      <point x="52" y="78" type="curve" smooth="yes"/>
      <point x="-4" y="78"/>
      <point x="-25" y="54"/>
      <point x="-25" y="26" type="curve" smooth="yes"/>
      <point x="-25" y="-10"/>
      <point x="9" y="-54"/>
      <point x="67" y="-54" type="curve" smooth="yes"/>
      <point x="107" y="-54"/>
      <point x="150" y="-33"/>
      <point x="195" y="2" type="curve"/>
      <point x="282" y="-38"/>
      <point x="377" y="-87"/>
    </contour>
    <contour>
      <point x="62" y="-27" type="curve" smooth="yes"/>
      <point x="25" y="-27"/>
      <point x="1" y="6"/>
      <point x="1" y="28" type="curve" smooth="yes"/>
      <point x="1" y="41"/>
      <point x="9" y="52"/>
      <point x="38" y="52" type="curve" smooth="yes"/>
      <point x="69" y="52"/>
      <point x="110" y="38"/>
      <point x="154" y="20" type="curve"/>
      <point x="120" y="-9"/>
      <point x="88" y="-27"/>
    </contour>
  </outline>
</glyph>
<glyph name="g" format="2">
  <advance width="389"/>
  <unicode hex="0067"/>
  <outline>
    <contour>
      <point x="38" y="-280" type="curve" smooth="yes"/>
      <point x="113" y="-280"/>
      <point x="177" y="-171"/>
      <point x="233" y="-36" type="curve"/>
      <point x="295" y="-6"/>
      <point x="389" y="62"/>
      <point x="420" y="152" type="curve"/>
      <point x="407" y="162" type="line"/>
      <point x="377" y="86"/>
      <point x="309" y="24"/>
      <point x="244" y="-7" type="curve"/>
      <point x="290" y="112"/>
      <point x="321" y="234"/>
      <point x="321" y="267" type="curve"/>
      <point x="313" y="269"/>
      <point x="306" y="270"/>
      <point x="300" y="270" type="curve" smooth="yes"/>
      <point x="267" y="270"/>
      <point x="253" y="238"/>
      <point x="249" y="219" type="curve"/>
      <point x="244" y="196"/>
      <point x="241" y="184"/>
      <point x="237" y="166" type="curve"/>
      <point x="186" y="93"/>
      <point x="127" y="34"/>
      <point x="89" y="34" type="curve" smooth="yes"/>
      <point x="68" y="34"/>
      <point x="54" y="51"/>
      <point x="54" y="83" type="curve" smooth="yes"/>
      <point x="54" y="167"/>
      <point x="150" y="310"/>
      <point x="255" y="310" type="curve" smooth="yes"/>
      <point x="275" y="310"/>
      <point x="288" y="305"/>
      <point x="295" y="295" type="curve"/>
      <point x="298" y="296"/>
      <point x="307" y="303"/>
      <point x="307" y="315" type="curve" smooth="yes"/>
      <point x="307" y="332"/>
      <point x="291" y="347"/>
      <point x="253" y="347" type="curve" smooth="yes"/>
      <point x="145" y="347"/>
      <point x="-12" y="227"/>
      <point x="-12" y="88" type="curve" smooth="yes"/>
      <point x="-12" y="30"/>
      <point x="15" y="-9"/>
      <point x="63" y="-9" type="curve" smooth="yes"/>
      <point x="119" y="-9"/>
      <point x="175" y="46"/>
      <point x="226" y="119" type="curve"/>
      <point x="210" y="54"/>
      <point x="193" y="0"/>
      <point x="175" y="-46" type="curve"/>
      <point x="91" y="-88"/>
      <point x="-20" y="-141"/>
      <point x="-20" y="-222" type="curve" smooth="yes"/>
      <point x="-20" y="-263"/>
      <point x="9" y="-280"/>
    </contour>
    <contour>
      <point x="35" y="-248" type="curve" smooth="yes"/>
      <point x="21" y="-248"/>
      <point x="11" y="-234"/>
      <point x="11" y="-213" type="curve" smooth="yes"/>
      <point x="11" y="-156"/>
      <point x="85" y="-113"/>
      <point x="164" y="-73" type="curve"/>
      <point x="111" y="-201"/>
      <point x="61" y="-248"/>
    </contour>
  </outline>
</glyph>
<glyph name="l" format="2">
  <advance width="236"/>
  <unicode hex="006C"/>
  <anchor x="367" y="592" name="topright"/>
  <anchor x="348" y="334" name="center"/>
  <outline>
    <contour>
      <point x="83" y="-30" type="curve" smooth="yes"/>
      <point x="155" y="-30"/>
      <point x="218" y="40"/>
      <point x="271" y="154" type="curve"/>
      <point x="256" y="162" type="line"/>
      <point x="221" y="84"/>
      <point x="165" y="2"/>
      <point x="112" y="2" type="curve" smooth="yes"/>
      <point x="83" y="2"/>
      <point x="68" y="27"/>
      <point x="68" y="79" type="curve" smooth="yes"/>
      <point x="68" y="109"/>
      <point x="73" y="144"/>
      <point x="81" y="180" type="curve"/>
      <point x="227" y="301"/>
      <point x="347" y="557"/>
      <point x="347" y="646" type="curve" smooth="yes"/>
      <point x="347" y="674"/>
      <point x="335" y="720"/>
      <point x="314" y="720" type="curve" smooth="yes"/>
      <point x="246" y="720"/>
      <point x="3" y="265"/>
      <point x="3" y="73" type="curve" smooth="yes"/>
      <point x="3" y="14"/>
      <point x="26" y="-30"/>
    </contour>
    <contour>
      <point x="90" y="214" type="curve"/>
      <point x="145" y="407"/>
      <point x="282" y="639"/>
      <point x="309" y="639" type="curve" smooth="yes"/>
      <point x="312" y="639"/>
      <point x="316" y="636"/>
      <point x="316" y="623" type="curve" smooth="yes"/>
      <point x="316" y="556"/>
      <point x="206" y="331"/>
    </contour>
  </outline>
</glyph>
<glyph name="r" format="2">
  <advance width="348"/>
  <unicode hex="0072"/>
  <outline>
    <contour>
      <point x="173" y="-26" type="curve" smooth="yes"/>
      <point x="258" y="-26"/>
      <point x="344" y="64"/>
      <point x="382" y="149" type="curve"/>
      <point x="369" y="159" type="line"/>
      <point x="344" y="101"/>
      <point x="262" y="10"/>
      <point x="199" y="10" type="curve" smooth="yes"/>
      <point x="183" y="10"/>
      <point x="169" y="16"/>
      <point x="169" y="40" type="curve" smooth="yes"/>
      <point x="169" y="82"/>
      <point x="219" y="148"/>
      <point x="219" y="209" type="curve" smooth="yes"/>
      <point x="219" y="294"/>
      <point x="117" y="311"/>
      <point x="117" y="348" type="curve" smooth="yes"/>
      <point x="117" y="352"/>
      <point x="128" y="378"/>
      <point x="128" y="385" type="curve" smooth="yes"/>
      <point x="128" y="392"/>
      <point x="128" y="409"/>
      <point x="114" y="409" type="curve" smooth="yes"/>
      <point x="103" y="409"/>
      <point x="72" y="381"/>
      <point x="72" y="341" type="curve" smooth="yes"/>
      <point x="72" y="331"/>
      <point x="76" y="323"/>
      <point x="82" y="317" type="curve"/>
      <point x="53" y="232"/>
      <point x="19" y="162"/>
      <point x="1" y="127" type="curve"/>
      <point x="10" y="110" type="line"/>
      <point x="31" y="146"/>
      <point x="68" y="223"/>
      <point x="99" y="302" type="curve"/>
      <point x="124" y="284"/>
      <point x="155" y="269"/>
      <point x="155" y="226" type="curve" smooth="yes"/>
      <point x="155" y="173"/>
      <point x="100" y="98"/>
      <point x="100" y="39" type="curve" smooth="yes"/>
      <point x="100" y="0"/>
      <point x="128" y="-26"/>
    </contour>
  </outline>
</glyph>
<glyph name="t" format="2">
  <advance width="285"/>
  <unicode hex="0074"/>
  <anchor x="269" y="424" name="topright"/>
  <outline>
    <contour>
      <point x="85" y="-46" type="curve" smooth="yes"/>
      <point x="179" y="-46"/>
      <point x="269" y="39"/>
      <point x="317" y="152" type="curve"/>
      <point x="304" y="162" type="line"/>
      <point x="253" y="57"/>
      <point x="183" y="-9"/>
      <point x="114" y="-9" type="curve" smooth="yes"/>
      <point x="74" y="-9"/>
      <point x="58" y="13"/>
      <point x="58" y="71" type="curve" smooth="yes"/>
      <point x="58" y="142"/>
      <point x="82" y="218"/>
      <point x="113" y="289" type="curve"/>
      <point x="118" y="289"/>
      <point x="123" y="289"/>
      <point x="128" y="289" type="curve"/>
      <point x="173" y="289"/>
      <point x="231" y="293"/>
      <point x="304" y="301" type="curve"/>
      <point x="304" y="319" type="line"/>
      <point x="254" y="314"/>
      <point x="205" y="313"/>
      <point x="161" y="313" type="curve" smooth="yes"/>
      <point x="148.679" y="313.0"/>
      <point x="136" y="313"/>
      <point x="124" y="313" type="curve"/>
      <point x="182" y="436"/>
      <point x="257" y="540"/>
      <point x="257" y="575" type="curve" smooth="yes"/>
      <point x="257" y="589"/>
      <point x="246" y="597"/>
      <point x="236" y="597" type="curve" smooth="yes"/>
      <point x="195" y="597"/>
      <point x="118" y="460"/>
      <point x="62" y="316" type="curve"/>
      <point x="43" y="317"/>
      <point x="28" y="319"/>
      <point x="18" y="320" type="curve"/>
      <point x="18" y="302" type="line"/>
      <point x="29" y="298"/>
      <point x="41" y="296"/>
      <point x="54" y="294" type="curve"/>
      <point x="20" y="203"/>
      <point x="-4" y="112"/>
      <point x="-4" y="53" type="curve" smooth="yes"/>
      <point x="-4" y="-13"/>
      <point x="27" y="-46"/>
    </contour>
  </outline>
</glyph>
<glyph name="registered" format="2">
  <advance width="592"/>
  <unicode hex="00AE"/>
  <outline>
    <contour>
      <point x="323" y="100" type="curve" smooth="yes"/>
      <point x="434" y="100"/>
      <point x="571" y="183"/>
      <point x="571" y="362" type="curve" smooth="yes"/>
      <point x="571" y="535"/>
      <point x="440" y="620"/>
      <point x="327" y="620" type="curve" smooth="yes"/>
      <point x="216" y="620"/>
      <point x="79" y="537"/>
      <point x="79" y="358" type="curve" smooth="yes"/>
      <point x="79" y="185"/>
      <point x="210" y="100"/>
    </contour>
    <contour>
      <point x="323" y="128" type="curve" smooth="yes"/>
      <point x="194" y="128"/>
      <point x="107" y="225"/>
      <point x="107" y="358" type="curve" smooth="yes"/>
      <point x="107" y="497"/>
      <point x="200" y="592"/>
      <point x="327" y="592" type="curve" smooth="yes"/>
      <point x="456" y="592"/>
      <point x="543" y="495"/>
      <point x="543" y="362" type="curve" smooth="yes"/>
      <point x="543" y="223"/>
      <point x="450" y="128"/>
    </contour>
    <contour>
      <point x="267" y="210" type="curve" smooth="yes"/>
      <point x="274" y="210"/>
      <point x="282" y="215"/>
      <point x="282" y="224" type="curve" smooth="yes"/>
      <point x="282" y="353" type="line"/>
      <point x="323" y="353" type="line"/>
      <point x="376" y="239" type="line" smooth="yes"/>
      <point x="378" y="234"/>
      <point x="389" y="210"/>
      <point x="401" y="210" type="curve" smooth="yes"/>
      <point x="410" y="210"/>
      <point x="415" y="216"/>
      <point x="415" y="224" type="curve" smooth="yes"/>
      <point x="415" y="226"/>
      <point x="414" y="229"/>
      <point x="413" y="231" type="curve" smooth="yes"/>
      <point x="394" y="272"/>
      <point x="374" y="314"/>
      <point x="355" y="355" type="curve"/>
      <point x="388" y="362"/>
      <point x="415" y="386"/>
      <point x="415" y="437" type="curve" smooth="yes"/>
      <point x="415" y="501"/>
      <point x="375" y="521"/>
      <point x="329" y="521" type="curve" smooth="yes"/>
      <point x="266" y="521" type="line" smooth="yes"/>
      <point x="257" y="521"/>
      <point x="251" y="514"/>
      <point x="251" y="508" type="curve" smooth="yes"/>
      <point x="251" y="224" type="line" smooth="yes"/>
      <point x="251" y="215"/>
      <point x="259" y="210"/>
    </contour>
    <contour>
      <point x="282" y="379" type="line"/>
      <point x="282" y="494" type="line"/>
      <point x="329" y="494" type="line" smooth="yes"/>
      <point x="362" y="494"/>
      <point x="384" y="478"/>
      <point x="384" y="437" type="curve" smooth="yes"/>
      <point x="384" y="396"/>
      <point x="362" y="379"/>
      <point x="329" y="379" type="curve" smooth="yes"/>
    </contour>
  </outline>
</glyph>
<glyph name="plusminus" format="2">
  <advance width="449"/>
  <unicode hex="00B1"/>
  <outline>
    <contour>
      <point x="187" y="115" type="curve"/>
      <point x="220" y="126"/>
      <point x="229" y="179"/>
      <point x="231" y="247" type="curve"/>
      <point x="282" y="247" type="line" smooth="yes"/>
      <point x="308" y="247"/>
      <point x="345" y="251"/>
      <point x="375" y="271" type="curve"/>
      <point x="350" y="273"/>
      <point x="292" y="277"/>
      <point x="231" y="278" type="curve"/>
      <point x="230" y="330"/>
      <point x="226" y="378"/>
      <point x="223" y="400" type="curve"/>
      <point x="201" y="374"/>
      <point x="197" y="340"/>
      <point x="197" y="318" type="curve" smooth="yes"/>
      <point x="197" y="278" type="line"/>
      <point x="123" y="276"/>
      <point x="65" y="267"/>
      <point x="54" y="239" type="curve"/>
      <point x="110" y="247"/>
      <point x="139" y="247"/>
      <point x="197" y="247" type="curve"/>
      <point x="197" y="195"/>
      <point x="196" y="164"/>
    </contour>
    <contour>
      <point x="54" y="34" type="curve"/>
      <point x="112" y="42"/>
      <point x="167" y="43"/>
      <point x="222" y="43" type="curve" smooth="yes"/>
      <point x="314" y="43"/>
      <point x="347" y="49"/>
      <point x="375" y="66" type="curve"/>
      <point x="349" y="69"/>
      <point x="288" y="73"/>
      <point x="224" y="73" type="curve" smooth="yes"/>
      <point x="138" y="73"/>
      <point x="67" y="66"/>
    </contour>
  </outline>
</glyph>
<glyph name="questiondown" format="2">
  <advance width="415"/>
  <unicode hex="00BF"/>
  <outline>
    <contour>
      <point x="85" y="-280" type="curve" smooth="yes"/>
      <point x="209" y="-280"/>
      <point x="295" y="-184"/>
      <point x="295" y="-82" type="curve" smooth="yes"/>
      <point x="295" y="-46"/>
      <point x="284" y="-20"/>
      <point x="233" y="-13" type="curve"/>
      <point x="237" y="-30"/>
      <point x="240" y="-44"/>
      <point x="240" y="-64" type="curve" smooth="yes"/>
      <point x="240" y="-170"/>
      <point x="159" y="-255"/>
      <point x="89" y="-255" type="curve" smooth="yes"/>
      <point x="44" y="-255"/>
      <point x="10" y="-221"/>
      <point x="10" y="-153" type="curve" smooth="yes"/>
      <point x="10" y="6"/>
      <point x="201" y="71"/>
      <point x="201" y="214" type="curve" smooth="yes"/>
      <point x="201" y="237"/>
      <point x="196" y="244"/>
      <point x="170" y="256" type="curve"/>
      <point x="156" y="226"/>
      <point x="158" y="195"/>
      <point x="145" y="154" type="curve" smooth="yes"/>
      <point x="101" y="15"/>
      <point x="-50" y="-29"/>
      <point x="-50" y="-161" type="curve" smooth="yes"/>
      <point x="-50" y="-238"/>
      <point x="2" y="-280"/>
    </contour>
    <contour>
      <point x="182" y="322" type="curve" smooth="yes"/>
      <point x="208" y="322"/>
      <point x="240" y="340"/>
      <point x="240" y="364" type="curve" smooth="yes"/>
      <point x="240" y="381"/>
      <point x="225" y="390"/>
      <point x="208" y="390" type="curve" smooth="yes"/>
      <point x="182" y="390"/>
      <point x="156" y="367"/>
      <point x="156" y="344" type="curve" smooth="yes"/>
      <point x="156" y="329"/>
      <point x="166" y="322"/>
    </contour>
  </outline>
</glyph>
<glyph name="eth" format="2">
  <advance width="473"/>
  <unicode hex="00F0"/>
  <outline>
    <contour>
      <point x="59" y="-30" type="curve" smooth="yes"/>
      <point x="120" y="-30"/>
      <point x="198" y="49"/>
      <point x="263" y="156" type="curve"/>
      <point x="251" y="110"/>
      <point x="244" y="72"/>
      <point x="244" y="49" type="curve" smooth="yes"/>
      <point x="244" y="14"/>
      <point x="260" y="-26"/>
      <point x="310" y="-26" type="curve" smooth="yes"/>
      <point x="378" y="-26"/>
      <point x="465" y="50"/>
      <point x="504" y="153" type="curve"/>
      <point x="492" y="162" type="line"/>
      <point x="450" y="71"/>
      <point x="379" y="14"/>
      <point x="338" y="14" type="curve" smooth="yes"/>
      <point x="317" y="14"/>
      <point x="310" y="30"/>
      <point x="310" y="57" type="curve" smooth="yes"/>
      <point x="310" y="166"/>
      <point x="422" y="360"/>
      <point x="422" y="495" type="curve" smooth="yes"/>
      <point x="422" y="509"/>
      <point x="421" y="525"/>
      <point x="418" y="542" type="curve"/>
      <point x="464" y="548"/>
      <point x="482" y="551"/>
      <point x="503" y="586" type="curve"/>
      <point x="487" y="581"/>
      <point x="443" y="576"/>
      <point x="412" y="574" type="curve"/>
      <point x="394" y="646"/>
      <point x="354" y="719"/>
      <point x="293" y="719" type="curve" smooth="yes"/>
      <point x="275" y="719"/>
      <point x="264" y="713"/>
      <point x="254" y="700" type="curve"/>
      <point x="300" y="660"/>
      <point x="328" y="614"/>
      <point x="341" y="566" type="curve"/>
      <point x="285" y="558"/>
      <point x="233" y="549"/>
      <point x="233" y="509" type="curve"/>
      <point x="261" y="517"/>
      <point x="320" y="528"/>
      <point x="348" y="532" type="curve"/>
      <point x="351" y="517"/>
      <point x="352" y="503"/>
      <point x="352" y="489" type="curve" smooth="yes"/>
      <point x="352" y="420"/>
      <point x="327" y="345"/>
      <point x="307" y="293" type="curve" smooth="yes"/>
      <point x="250" y="144"/>
      <point x="148" y="18"/>
      <point x="90" y="18" type="curve" smooth="yes"/>
      <point x="68" y="18"/>
      <point x="54" y="36"/>
      <point x="54" y="66" type="curve" smooth="yes"/>
      <point x="54" y="143"/>
      <point x="149" y="330"/>
      <point x="257" y="330" type="curve" smooth="yes"/>
      <point x="275" y="330"/>
      <point x="288" y="325"/>
      <point x="295" y="315" type="curve"/>
      <point x="296" y="320"/>
      <point x="297" y="324"/>
      <point x="297" y="329" type="curve" smooth="yes"/>
      <point x="297" y="350"/>
      <point x="281" y="360"/>
      <point x="253" y="360" type="curve" smooth="yes"/>
      <point x="129" y="360"/>
      <point x="-16" y="165"/>
      <point x="-16" y="54" type="curve" smooth="yes"/>
      <point x="-16" y="-5"/>
      <point x="25" y="-30"/>
    </contour>
  </outline>
</glyph>
<glyph name="idotless" format="2">
  <advance width="242"/>
  <unicode hex="0131"/>
  <anchor x="218" y="10" name="ogonek"/>
  <outline>
    <contour>
      <point x="72" y="-26" type="curve" smooth="yes"/>
      <point x="150" y="-26"/>
      <point x="230" y="37"/>
      <point x="269" y="152" type="curve"/>
      <point x="260" y="162" type="line"/>
      <point x="203" y="48"/>
      <point x="151" y="9"/>
      <point x="106" y="9" type="curve" smooth="yes"/>
      <point x="73" y="9"/>
      <point x="57" y="21"/>
      <point x="57" y="69" type="curve" smooth="yes"/>
      <point x="57" y="163"/>
      <point x="161" y="284"/>
      <point x="161" y="317" type="curve" smooth="yes"/>
      <point x="161" y="331"/>
      <point x="151" y="339"/>
      <point x="139" y="339" type="curve" smooth="yes"/>
      <point x="71" y="339"/>
      <point x="-5" y="134"/>
      <point x="-5" y="58" type="curve" smooth="yes"/>
      <point x="-5" y="11"/>
      <point x="20" y="-26"/>
    </contour>
  </outline>
</glyph>
<glyph name="Schwa" format="2">
  <advance width="593"/>
  <unicode hex="018F"/>
  <outline>
    <contour>
      <point x="176" y="-87" type="curve" smooth="yes"/>
      <point x="366" y="-87"/>
      <point x="587" y="211"/>
      <point x="587" y="475" type="curve" smooth="yes"/>
      <point x="587" y="598"/>
      <point x="526" y="720"/>
      <point x="377" y="720" type="curve" smooth="yes"/>
      <point x="204" y="720"/>
      <point x="81" y="560"/>
      <point x="81" y="473" type="curve" smooth="yes"/>
      <point x="81" y="442"/>
      <point x="106" y="433"/>
      <point x="132" y="433" type="curve"/>
      <point x="160" y="566"/>
      <point x="253" y="685"/>
      <point x="377" y="685" type="curve" smooth="yes"/>
      <point x="473" y="685"/>
      <point x="507" y="597"/>
      <point x="507" y="492" type="curve" smooth="yes"/>
      <point x="507" y="267"/>
      <point x="319" y="-57"/>
      <point x="177" y="-57" type="curve" smooth="yes"/>
      <point x="143" y="-57"/>
      <point x="124" y="-29"/>
      <point x="124" y="17" type="curve" smooth="yes"/>
      <point x="124" y="183"/>
      <point x="303" y="327"/>
      <point x="517" y="411" type="curve"/>
      <point x="511" y="432" type="line"/>
      <point x="267" y="388"/>
      <point x="44" y="229"/>
      <point x="44" y="47" type="curve" smooth="yes"/>
      <point x="44" y="-31"/>
      <point x="90" y="-87"/>
    </contour>
  </outline>
</glyph>
<glyph name="schwa" format="2">
  <advance width="421"/>
  <unicode hex="0259"/>
  <outline>
    <contour>
      <point x="125" y="-43" type="curve" smooth="yes"/>
      <point x="254" y="-43"/>
      <point x="369" y="117"/>
      <point x="369" y="238" type="curve" smooth="yes"/>
      <point x="369" y="311"/>
      <point x="321" y="361"/>
      <point x="240" y="361" type="curve" smooth="yes"/>
      <point x="139" y="361"/>
      <point x="71" y="293"/>
      <point x="71" y="239" type="curve" smooth="yes"/>
      <point x="71" y="216"/>
      <point x="84" y="206"/>
      <point x="107" y="204" type="curve"/>
      <point x="124" y="284"/>
      <point x="169" y="332"/>
      <point x="230" y="332" type="curve" smooth="yes"/>
      <point x="285" y="332"/>
      <point x="305" y="290"/>
      <point x="305" y="241" type="curve" smooth="yes"/>
      <point x="305" y="150"/>
      <point x="206" y="-12"/>
      <point x="123" y="-12" type="curve" smooth="yes"/>
      <point x="104" y="-12"/>
      <point x="94" y="-1"/>
      <point x="94" y="17" type="curve" smooth="yes"/>
      <point x="94" y="111"/>
      <point x="253" y="201"/>
      <point x="344" y="201" type="curve"/>
      <point x="340" y="215" type="line"/>
      <point x="189" y="215"/>
      <point x="40" y="126"/>
      <point x="40" y="32" type="curve" smooth="yes"/>
      <point x="40" y="-14"/>
      <point x="73" y="-43"/>
    </contour>
  </outline>
</glyph>
<glyph name="ellipsis" format="2">
  <advance width="526"/>
  <unicode hex="2026"/>
  <outline>
    <contour>
      <point x="352" y="-10" type="curve" smooth="yes"/>
      <point x="378" y="-10"/>
      <point x="404" y="14"/>
      <point x="404" y="34" type="curve" smooth="yes"/>
      <point x="404" y="52"/>
      <point x="394" y="58"/>
      <point x="378" y="58" type="curve" smooth="yes"/>
      <point x="352" y="58"/>
      <point x="320" y="39"/>
      <point x="320" y="17" type="curve" smooth="yes"/>
      <point x="320" y="-2"/>
      <point x="335" y="-10"/>
    </contour>
    <contour>
      <point x="40" y="-10" type="curve" smooth="yes"/>
      <point x="66" y="-10"/>
      <point x="92" y="14"/>
      <point x="92" y="34" type="curve" smooth="yes"/>
      <point x="92" y="52"/>
      <point x="82" y="58"/>
      <point x="66" y="58" type="curve" smooth="yes"/>
      <point x="40" y="58"/>
      <point x="8" y="39"/>
      <point x="8" y="17" type="curve" smooth="yes"/>
      <point x="8" y="-2"/>
      <point x="23" y="-10"/>
    </contour>
    <contour>
      <point x="196" y="-10" type="curve" smooth="yes"/>
      <point x="222" y="-10"/>
      <point x="248" y="14"/>
      <point x="248" y="34" type="curve" smooth="yes"/>
      <point x="248" y="52"/>
      <point x="238" y="58"/>
      <point x="222" y="58" type="curve" smooth="yes"/>
      <point x="196" y="58"/>
      <point x="164" y="39"/>
      <point x="164" y="17" type="curve" smooth="yes"/>
      <point x="164" y="-2"/>
      <point x="179" y="-10"/>
    </contour>
  </outline>
</glyph>
<glyph name="perthousand" format="2">
  <advance width="987"/>
  <unicode hex="2030"/>
  <outline>
    <contour>
      <point x="80" y="-87" type="curve"/>
      <point x="137" y="-87"/>
      <point x="196" y="-13"/>
      <point x="265" y="97" type="curve" smooth="yes"/>
      <point x="351" y="235"/>
      <point x="572" y="663"/>
      <point x="594" y="720" type="curve"/>
      <point x="562" y="720"/>
      <point x="517" y="694"/>
      <point x="510" y="675" type="curve" smooth="yes"/>
      <point x="439" y="491"/>
      <point x="173" y="6"/>
    </contour>
    <contour>
      <point x="182" y="347" type="curve" smooth="yes"/>
      <point x="268" y="347"/>
      <point x="329" y="480"/>
      <point x="329" y="565" type="curve" smooth="yes"/>
      <point x="329" y="628"/>
      <point x="296" y="669"/>
      <point x="245" y="669" type="curve" smooth="yes"/>
      <point x="159" y="669"/>
      <point x="100" y="544"/>
      <point x="100" y="455" type="curve" smooth="yes"/>
      <point x="100" y="398"/>
      <point x="125" y="347"/>
    </contour>
    <contour>
      <point x="188" y="385" type="curve" smooth="yes"/>
      <point x="167" y="385"/>
      <point x="155" y="410"/>
      <point x="155" y="447" type="curve" smooth="yes"/>
      <point x="155" y="510"/>
      <point x="186" y="633"/>
      <point x="245" y="633" type="curve" smooth="yes"/>
      <point x="268" y="633"/>
      <point x="277" y="608"/>
      <point x="277" y="573" type="curve" smooth="yes"/>
      <point x="277" y="497"/>
      <point x="236" y="385"/>
    </contour>
    <contour>
      <point x="505" y="0" type="curve" smooth="yes"/>
      <point x="591" y="0"/>
      <point x="652" y="134"/>
      <point x="652" y="218" type="curve" smooth="yes"/>
      <point x="652" y="281"/>
      <point x="619" y="322"/>
      <point x="568" y="322" type="curve" smooth="yes"/>
      <point x="482" y="322"/>
      <point x="423" y="197"/>
      <point x="423" y="108" type="curve" smooth="yes"/>
      <point x="423" y="51"/>
      <point x="448" y="0"/>
    </contour>
    <contour>
      <point x="511" y="38" type="curve" smooth="yes"/>
      <point x="490" y="38"/>
      <point x="478" y="63"/>
      <point x="478" y="101" type="curve" smooth="yes"/>
      <point x="478" y="163"/>
      <point x="509" y="286"/>
      <point x="568" y="286" type="curve" smooth="yes"/>
      <point x="591" y="286"/>
      <point x="600" y="261"/>
      <point x="600" y="226" type="curve" smooth="yes"/>
      <point x="600" y="150"/>
      <point x="559" y="38"/>
    </contour>
    <contour>
      <point x="793" y="0" type="curve" smooth="yes"/>
      <point x="879" y="0"/>
      <point x="940" y="134"/>
      <point x="940" y="218" type="curve" smooth="yes"/>
      <point x="940" y="281"/>
      <point x="907" y="322"/>
      <point x="856" y="322" type="curve" smooth="yes"/>
      <point x="770" y="322"/>
      <point x="711" y="197"/>
      <point x="711" y="108" type="curve" smooth="yes"/>
      <point x="711" y="51"/>
      <point x="736" y="0"/>
    </contour>
    <contour>
      <point x="799" y="38" type="curve" smooth="yes"/>
      <point x="778" y="38"/>
      <point x="766" y="63"/>
      <point x="766" y="101" type="curve" smooth="yes"/>
      <point x="766" y="163"/>
      <point x="797" y="286"/>
      <point x="856" y="286" type="curve" smooth="yes"/>
      <point x="879" y="286"/>
      <point x="888" y="261"/>
      <point x="888" y="226" type="curve" smooth="yes"/>
      <point x="888" y="150"/>
      <point x="847" y="38"/>
    </contour>
  </outline>
</glyph>
<glyph name="guilsinglleft" format="2">
  <advance width="285"/>
  <unicode hex="2039"/>
  <outline>
    <contour>
      <point x="165" y="44" type="curve" smooth="yes"/>
      <point x="178" y="44"/>
      <point x="188" y="53"/>
      <point x="194" y="60" type="curve"/>
      <point x="103" y="95"/>
      <point x="76" y="115"/>
      <point x="32" y="147" type="curve"/>
      <point x="99" y="182"/>
      <point x="201" y="240"/>
      <point x="201" y="294" type="curve" smooth="yes"/>
      <point x="201" y="300"/>
      <point x="198" y="313"/>
      <point x="196" y="316" type="curve"/>
      <point x="154" y="257"/>
      <point x="72" y="187"/>
      <point x="6" y="158" type="curve"/>
      <point x="16" y="118"/>
      <point x="117" y="44"/>
    </contour>
  </outline>
</glyph>
<glyph name="guilsinglright" format="2">
  <advance width="304"/>
  <unicode hex="203A"/>
  <outline>
    <contour>
      <point x="87" y="44" type="curve" smooth="yes"/>
      <point x="135" y="44"/>
      <point x="236" y="118"/>
      <point x="246" y="158" type="curve"/>
      <point x="180" y="187"/>
      <point x="98" y="257"/>
      <point x="56" y="316" type="curve"/>
      <point x="54" y="313"/>
      <point x="51" y="300"/>
      <point x="51" y="294" type="curve" smooth="yes"/>
      <point x="51" y="240"/>
      <point x="153" y="182"/>
      <point x="220" y="147" type="curve"/>
      <point x="175" y="114"/>
      <point x="149" y="95"/>
      <point x="58" y="60" type="curve"/>
      <point x="64" y="53"/>
      <point x="74" y="44"/>
    </contour>
  </outline>
</glyph>
<glyph name="peso" format="2">
  <advance width="685"/>
  <unicode hex="20B1"/>
  <outline>
    <contour>
      <point x="87" y="-56" type="curve"/>
      <point x="192" y="268"/>
      <point x="253" y="490"/>
      <point x="338" y="636" type="curve"/>
      <point x="432" y="635"/>
      <point x="519" y="592"/>
      <point x="519" y="490" type="curve" smooth="yes"/>
      <point x="519" y="327"/>
      <point x="327" y="253"/>
      <point x="165" y="246" type="curve"/>
      <point x="161" y="221" type="line"/>
      <point x="175" y="221" type="line" smooth="yes"/>
      <point x="245" y="221"/>
      <point x="586" y="246"/>
      <point x="586" y="475" type="curve" smooth="yes"/>
      <point x="586" y="594"/>
      <point x="447" y="655"/>
      <point x="329" y="655" type="curve" smooth="yes"/>
      <point x="245" y="655"/>
      <point x="159" y="626"/>
      <point x="108" y="606" type="curve"/>
      <point x="108" y="597"/>
      <point x="131" y="582"/>
      <point x="139" y="582" type="curve" smooth="yes"/>
      <point x="150" y="582"/>
      <point x="201" y="618"/>
      <point x="278" y="631" type="curve"/>
      <point x="175" y="426"/>
      <point x="123" y="264"/>
      <point x="32" y="37" type="curve" smooth="yes"/>
      <point x="26" y="22"/>
      <point x="18" y="2"/>
      <point x="18" y="-12" type="curve" smooth="yes"/>
      <point x="18" y="-37"/>
      <point x="53" y="-56"/>
    </contour>
    <contour>
      <point x="87" y="337" type="curve"/>
      <point x="141" y="351"/>
      <point x="204" y="356"/>
      <point x="324" y="356" type="curve" smooth="yes"/>
      <point x="539" y="356"/>
      <point x="628" y="359"/>
      <point x="638" y="397" type="curve"/>
      <point x="562" y="405"/>
      <point x="482" y="408"/>
      <point x="387" y="408" type="curve" smooth="yes"/>
      <point x="216" y="408"/>
      <point x="91" y="388"/>
    </contour>
    <contour>
      <point x="118" y="467" type="curve"/>
      <point x="171" y="481"/>
      <point x="234" y="486"/>
      <point x="352" y="486" type="curve" smooth="yes"/>
      <point x="562" y="486"/>
      <point x="649" y="489"/>
      <point x="659" y="527" type="curve"/>
      <point x="585" y="535"/>
      <point x="507" y="538"/>
      <point x="415" y="538" type="curve" smooth="yes"/>
      <point x="246" y="538"/>
      <point x="122" y="518"/>
    </contour>
  </outline>
</glyph>
<glyph name="notequal" format="2">
  <advance width="504"/>
  <unicode hex="2260"/>
  <outline>
    <contour>
      <point x="120" y="39" type="curve"/>
      <point x="163" y="34"/>
      <point x="206" y="99"/>
      <point x="250" y="184" type="curve" smooth="yes"/>
      <point x="283" y="248"/>
      <point x="308" y="311"/>
      <point x="320" y="338" type="curve"/>
      <point x="283" y="319"/>
      <point x="257" y="289"/>
      <point x="200" y="170" type="curve" smooth="yes"/>
      <point x="174" y="116"/>
      <point x="156" y="89"/>
    </contour>
    <contour>
      <point x="52" y="106" type="curve"/>
      <point x="113" y="116"/>
      <point x="144" y="117"/>
      <point x="205" y="117" type="curve" smooth="yes"/>
      <point x="306" y="117" type="line" smooth="yes"/>
      <point x="334" y="117"/>
      <point x="376" y="122"/>
      <point x="409" y="146" type="curve"/>
      <point x="380" y="149"/>
      <point x="312" y="155"/>
      <point x="241" y="155" type="curve" smooth="yes"/>
      <point x="145" y="155"/>
      <point x="67" y="146"/>
    </contour>
    <contour>
      <point x="52" y="206" type="curve"/>
      <point x="113" y="216"/>
      <point x="144" y="217"/>
      <point x="205" y="217" type="curve" smooth="yes"/>
      <point x="306" y="217" type="line" smooth="yes"/>
      <point x="334" y="217"/>
      <point x="376" y="222"/>
      <point x="409" y="246" type="curve"/>
      <point x="380" y="249"/>
      <point x="312" y="255"/>
      <point x="241" y="255" type="curve" smooth="yes"/>
      <point x="145" y="255"/>
      <point x="67" y="246"/>
    </contour>
  </outline>
</glyph>
<glyph name="lessequal" format="2">
  <advance width="311"/>
  <unicode hex="2264"/>
  <outline>
    <contour>
      <point x="220" y="107" type="curve" smooth="yes"/>
      <point x="233" y="107"/>
      <point x="243" y="116"/>
      <point x="249" y="123" type="curve"/>
      <point x="158" y="158"/>
      <point x="132" y="177"/>
      <point x="87" y="210" type="curve"/>
      <point x="152" y="229"/>
      <point x="256" y="276"/>
      <point x="256" y="326" type="curve" smooth="yes"/>
      <point x="256" y="333"/>
      <point x="254" y="341"/>
      <point x="251" y="344" type="curve"/>
      <point x="202" y="291"/>
      <point x="127" y="244"/>
      <point x="61" y="221" type="curve"/>
      <point x="71" y="181"/>
      <point x="172" y="107"/>
    </contour>
    <contour>
      <point x="55" y="51" type="curve"/>
      <point x="75" y="53"/>
      <point x="92" y="54"/>
      <point x="109" y="54" type="curve" smooth="yes"/>
      <point x="138" y="54"/>
      <point x="172" y="51"/>
      <point x="203" y="51" type="curve" smooth="yes"/>
      <point x="242" y="51"/>
      <point x="265" y="56"/>
      <point x="279" y="77" type="curve"/>
      <point x="256" y="74"/>
      <point x="183" y="81"/>
      <point x="155" y="81" type="curve" smooth="yes"/>
      <point x="105" y="82"/>
      <point x="66" y="75"/>
    </contour>
  </outline>
</glyph>
<glyph name="dieresiscomb.case" format="2">
  <outline>
    <contour>
      <point x="107" y="365" type="curve" smooth="yes"/>
      <point x="136" y="365"/>
      <point x="166" y="391"/>
      <point x="166" y="414" type="curve" smooth="yes"/>
      <point x="166" y="435"/>
      <point x="154" y="442"/>
      <point x="136" y="442" type="curve" smooth="yes"/>
      <point x="107" y="442"/>
      <point x="70" y="420"/>
      <point x="70" y="395" type="curve" smooth="yes"/>
      <point x="70" y="374"/>
      <point x="87" y="365"/>
    </contour>
    <contour>
      <point x="-37" y="386" type="curve" smooth="yes"/>
      <point x="-8" y="386"/>
      <point x="22" y="412"/>
      <point x="22" y="435" type="curve" smooth="yes"/>
      <point x="22" y="456"/>
      <point x="10" y="463"/>
      <point x="-8" y="463" type="curve" smooth="yes"/>
      <point x="-37" y="463"/>
      <point x="-74" y="441"/>
      <point x="-74" y="416" type="curve" smooth="yes"/>
      <point x="-74" y="395"/>
      <point x="-57" y="386"/>
    </contour>
  </outline>
</glyph>
<glyph name="gravecomb.case" format="2">
  <outline>
    <contour>
      <point x="31" y="360" type="curve"/>
      <point x="41" y="365"/>
      <point x="45" y="380"/>
      <point x="45" y="386" type="curve" smooth="yes"/>
      <point x="45" y="409"/>
      <point x="-19" y="507"/>
      <point x="-59" y="507" type="curve" smooth="yes"/>
      <point x="-70" y="507"/>
      <point x="-79" y="500"/>
      <point x="-81" y="476" type="curve"/>
      <point x="-33" y="434"/>
      <point x="2" y="399"/>
    </contour>
  </outline>
</glyph>
<glyph name="o_r" format="2">
  <advance width="753"/>
  <outline>
    <contour>
      <point x="68" y="-32" type="curve" smooth="yes"/>
      <point x="138" y="-32"/>
      <point x="201" y="36"/>
      <point x="243" y="134" type="curve"/>
      <point x="259" y="103"/>
      <point x="290" y="88"/>
      <point x="328" y="88" type="curve" smooth="yes"/>
      <point x="404" y="88"/>
      <point x="474" y="211"/>
      <point x="504" y="302" type="curve"/>
      <point x="529" y="284"/>
      <point x="560" y="269"/>
      <point x="560" y="226" type="curve" smooth="yes"/>
      <point x="560" y="173"/>
      <point x="505" y="98"/>
      <point x="505" y="39" type="curve" smooth="yes"/>
      <point x="505" y="0"/>
      <point x="533" y="-26"/>
      <point x="578" y="-26" type="curve" smooth="yes"/>
      <point x="663" y="-26"/>
      <point x="749" y="64"/>
      <point x="787" y="149" type="curve"/>
      <point x="774" y="159" type="line"/>
      <point x="749" y="101"/>
      <point x="667" y="10"/>
      <point x="604" y="10" type="curve" smooth="yes"/>
      <point x="588" y="10"/>
      <point x="574" y="16"/>
      <point x="574" y="40" type="curve" smooth="yes"/>
      <point x="574" y="82"/>
      <point x="624" y="148"/>
      <point x="624" y="209" type="curve" smooth="yes"/>
      <point x="624" y="294"/>
      <point x="522" y="311"/>
      <point x="522" y="348" type="curve" smooth="yes"/>
      <point x="522" y="352"/>
      <point x="533" y="378"/>
      <point x="533" y="385" type="curve" smooth="yes"/>
      <point x="533" y="392"/>
      <point x="533" y="409"/>
      <point x="519" y="409" type="curve" smooth="yes"/>
      <point x="508" y="409"/>
      <point x="477" y="381"/>
      <point x="477" y="341" type="curve" smooth="yes"/>
      <point x="477" y="331"/>
      <point x="481" y="323"/>
      <point x="487" y="317" type="curve"/>
      <point x="463" y="229"/>
      <point x="386" y="112"/>
      <point x="334" y="112" type="curve" smooth="yes"/>
      <point x="292" y="112"/>
      <point x="275" y="130"/>
      <point x="275" y="167" type="curve" smooth="yes"/>
      <point x="275" y="220"/>
      <point x="314" y="268"/>
      <point x="314" y="293" type="curve" smooth="yes"/>
      <point x="314" y="305"/>
      <point x="305" y="332"/>
      <point x="280" y="332" type="curve" smooth="yes"/>
      <point x="277" y="332"/>
      <point x="275" y="332"/>
      <point x="273" y="331" type="curve"/>
      <point x="267" y="343"/>
      <point x="255" y="352"/>
      <point x="230" y="352" type="curve" smooth="yes"/>
      <point x="111" y="352"/>
      <point x="-12" y="161"/>
      <point x="-12" y="55" type="curve" smooth="yes"/>
      <point x="-12" y="4"/>
      <point x="17" y="-32"/>
    </contour>
    <contour>
      <point x="90" y="11" type="curve" smooth="yes"/>
      <point x="66" y="11"/>
      <point x="52" y="31"/>
      <point x="52" y="62" type="curve" smooth="yes"/>
      <point x="52" y="138"/>
      <point x="133" y="313"/>
      <point x="246" y="313" type="curve"/>
      <point x="235" y="296"/>
      <point x="227" y="267"/>
      <point x="227" y="222" type="curve" smooth="yes"/>
      <point x="227" y="199"/>
      <point x="229" y="181"/>
      <point x="233" y="165" type="curve"/>
      <point x="197" y="79"/>
      <point x="135" y="11"/>
    </contour>
  </outline>
</glyph>
